<?xml version="1.0" encoding="UTF-8" standalone="no"?>
<!-- Created with Inkscape (http://www.inkscape.org/) -->

<svg
   width="1023.9999"
   height="511.99997"
   viewBox="0 0 270.9333 135.46664"
   version="1.1"
   id="svg1661"
   xml:space="preserve"
   xmlns="http://www.w3.org/2000/svg"
   xmlns:svg="http://www.w3.org/2000/svg"><defs
     id="defs1658" /><g
     id="layer1"><g
       id="g1672"
       transform="matrix(0.28799948,0,0,0.28799948,31.493437,41.381345)"><g
         id="layer1-4"
         style="display:none" /><path
         style="fill:#000000;stroke-width:0.99093"
         d="m 56.550842,192.47455 -55.77964993,-14.31252 -0.74041678,-0.0279 -0.74045168,-0.0279 V 88.719034 -0.67058113 L 54.329524,13.179413 l 55.039206,13.850094 3.70218,0.985694 3.7022,0.985704 V 51.340292 73.679578 H 98.508907 80.244885 v 15.415681 15.415621 h 18.264022 18.264203 v 51.22002 51.22003 l -2.22132,-0.082 -2.22137,-0.0821 -55.779578,-14.31244 z m 89.839718,-36.7217 v -51.19794 l 18.51087,-0.27055 18.51092,-0.27047 0.27264,-15.166979 0.27261,-15.167127 H 165.17416 146.39065 V 51.302188 28.924502 l 0.24688,-0.01 0.24692,-0.01 58.4946,-14.807092 58.49446,-14.80709432 V 88.697547 178.10456 h -0.55135 -0.55129 l -56.6346,14.42113 -56.63453,14.42126 h -1.55555 -1.55549 v -51.198 z"
         id="path1621" /></g><g
       aria-label="awesome
Bible
Docs"
       id="text1728"
       style="font-weight:bold;font-size:22.5778px;line-height:1;font-family:'Inter V';-inkscape-font-specification:'Inter V Bold';fill:#ffffff;stroke-width:0.264583"><path
         d="m 118.17223,47.633918 q -1.1786,0 -2.10063,-0.408902 -0.92204,-0.416919 -1.45922,-1.226706 -0.52917,-0.817803 -0.52917,-2.036491 0,-1.026264 0.37683,-1.723803 0.37683,-0.697538 1.02627,-1.122476 0.64943,-0.424937 1.47525,-0.641414 0.83384,-0.216478 1.74786,-0.304672 1.07436,-0.112248 1.73181,-0.20846 0.65746,-0.10423 0.95411,-0.304672 0.29665,-0.200442 0.29665,-0.593309 v -0.04811 q 0,-0.76168 -0.48106,-1.1786 -0.47304,-0.416919 -1.34697,-0.416919 -0.92203,0 -1.46723,0.408902 -0.54521,0.400884 -0.7216,1.010228 l -3.15896,-0.256566 q 0.24053,-1.122476 0.94608,-1.94028 0.70556,-0.825821 1.82002,-1.266794 1.12247,-0.44899 2.59773,-0.44899 1.02626,0 1.96433,0.24053 0.94609,0.240531 1.6757,0.745645 0.73762,0.505114 1.16256,1.298865 0.42494,0.785733 0.42494,1.884156 v 8.306321 h -3.23915 v -1.707767 h -0.0962 q -0.29665,0.577274 -0.79375,1.018246 -0.4971,0.432955 -1.19464,0.681504 -0.69753,0.24053 -1.61155,0.24053 z m 0.97816,-2.357199 q 0.75366,0 1.33093,-0.296655 0.57728,-0.304672 0.906,-0.817803 0.32873,-0.513132 0.32873,-1.162565 v -1.306882 q -0.16036,0.10423 -0.44098,0.192424 -0.2726,0.08018 -0.61736,0.152336 -0.34476,0.06414 -0.68952,0.120265 -0.34476,0.04811 -0.62538,0.08819 -0.60132,0.08819 -1.05031,0.280619 -0.44899,0.192424 -0.69754,0.521149 -0.24855,0.320708 -0.24855,0.801769 0,0.697539 0.50511,1.066352 0.51313,0.360796 1.29887,0.360796 z"
         style="fill:#000000"
         id="path294" /><path
         d="m 130.19074,47.401405 -3.3514,-12.315164 h 3.45563 l 1.9082,8.274251 h 0.11225 l 1.98839,-8.274251 h 3.39148 l 2.02046,8.226145 h 0.10423 l 1.87613,-8.226145 h 3.44761 l -3.34338,12.315164 h -3.61597 l -2.11667,-7.745083 h -0.15234 l -2.11667,7.745083 z"
         style="fill:#000000"
         id="path296" /><path
         d="m 152.26664,47.641936 q -1.9002,0 -3.27122,-0.769698 -1.36301,-0.777715 -2.10063,-2.196846 -0.73763,-1.427147 -0.73763,-3.375445 0,-1.900191 0.73763,-3.335357 0.73762,-1.435165 2.07658,-2.236934 1.34697,-0.801768 3.15897,-0.801768 1.21868,0 2.269,0.392866 1.05833,0.384849 1.84407,1.162564 0.79375,0.777716 1.23472,1.956316 0.44097,1.170582 0.44097,2.742048 v 0.938069 h -10.39893 v -2.116669 h 7.18384 q 0,-0.737627 -0.32071,-1.306882 -0.3207,-0.569256 -0.88996,-0.889964 -0.56124,-0.328725 -1.30688,-0.328725 -0.77772,0 -1.37904,0.360796 -0.59331,0.352778 -0.93005,0.954105 -0.33675,0.593308 -0.34476,1.322918 v 2.012439 q 0,0.914016 0.33674,1.579484 0.34476,0.665467 0.97014,1.026263 0.62538,0.360796 1.48327,0.360796 0.56926,0 1.0423,-0.160354 0.47304,-0.160353 0.80979,-0.481061 0.33674,-0.320707 0.51313,-0.785733 l 3.15896,0.20846 q -0.24053,1.138511 -0.98617,1.988386 -0.73763,0.841857 -1.90821,1.3149 -1.16256,0.465026 -2.68592,0.465026 z"
         style="fill:#000000"
         id="path298" /><path
         d="m 170.39462,38.597987 -3.12689,0.192425 q -0.0802,-0.400885 -0.34476,-0.721592 -0.26459,-0.328725 -0.69754,-0.521149 -0.42494,-0.200443 -1.01825,-0.200443 -0.79375,0 -1.33895,0.336743 -0.54521,0.328725 -0.54521,0.881946 0,0.440972 0.35278,0.745644 0.35278,0.304672 1.21067,0.489079 l 2.22892,0.44899 q 1.79596,0.368814 2.67791,1.186618 0.88194,0.817804 0.88194,2.148739 0,1.210671 -0.71357,2.124687 -0.70556,0.914016 -1.94028,1.427148 -1.22671,0.505114 -2.83024,0.505114 -2.4454,0 -3.8966,-1.018246 -1.44318,-1.026264 -1.69173,-2.790154 l 3.35941,-0.17639 q 0.15233,0.745645 0.73763,1.138512 0.58529,0.384849 1.4993,0.384849 0.89798,0 1.44319,-0.344761 0.55322,-0.352778 0.56123,-0.905998 -0.008,-0.465026 -0.39286,-0.76168 -0.38485,-0.304672 -1.18662,-0.465026 l -2.1327,-0.424937 q -1.80398,-0.360796 -2.68593,-1.250759 -0.87393,-0.889963 -0.87393,-2.269005 0,-1.186617 0.64142,-2.04451 0.64943,-0.857892 1.82001,-1.322918 1.1786,-0.465025 2.75809,-0.465025 2.33314,0 3.6721,0.986175 1.34697,0.986175 1.57146,2.685924 z"
         style="fill:#000000"
         id="path300" /><path
         d="m 178.39629,47.641936 q -1.86812,0 -3.23113,-0.793751 -1.35499,-0.801768 -2.09261,-2.228916 -0.73763,-1.435166 -0.73763,-3.32734 0,-1.908209 0.73763,-3.335357 0.73762,-1.435165 2.09261,-2.228916 1.36301,-0.801768 3.23113,-0.801768 1.86812,0 3.22311,0.801768 1.363,0.793751 2.10063,2.228916 0.73763,1.427148 0.73763,3.335357 0,1.892174 -0.73763,3.32734 -0.73763,1.427148 -2.10063,2.228916 -1.35499,0.793751 -3.22311,0.793751 z m 0.016,-2.645836 q 0.84988,0 1.41913,-0.481061 0.56926,-0.489079 0.8579,-1.330936 0.29665,-0.841857 0.29665,-1.916227 0,-1.074369 -0.29665,-1.916226 -0.28864,-0.841857 -0.8579,-1.330936 -0.56925,-0.489079 -1.41913,-0.489079 -0.85789,0 -1.44318,0.489079 -0.57727,0.489079 -0.87393,1.330936 -0.28863,0.841857 -0.28863,1.916226 0,1.07437 0.28863,1.916227 0.29666,0.841857 0.87393,1.330936 0.58529,0.481061 1.44318,0.481061 z"
         style="fill:#000000"
         id="path302" /><path
         d="M 186.68656,47.401405 V 35.086241 h 3.25518 v 2.172793 h 0.14432 q 0.38485,-1.082388 1.28283,-1.707767 0.89798,-0.625379 2.14874,-0.625379 1.26679,0 2.15676,0.633397 0.88996,0.625379 1.18661,1.699749 h 0.12829 q 0.37683,-1.058335 1.363,-1.691732 0.9942,-0.641414 2.34918,-0.641414 1.72381,0 2.79818,1.098422 1.08238,1.090406 1.08238,3.094827 v 8.282268 h -3.40751 v -7.608783 q 0,-1.026263 -0.5452,-1.539395 -0.54521,-0.513132 -1.36301,-0.513132 -0.93005,0 -1.4512,0.593309 -0.52115,0.585291 -0.52115,1.547413 v 7.520588 h -3.31131 v -7.680942 q 0,-0.905998 -0.52114,-1.443183 -0.51314,-0.537185 -1.35499,-0.537185 -0.56926,0 -1.02627,0.288637 -0.44899,0.280619 -0.71357,0.79375 -0.26458,0.505115 -0.26458,1.186618 v 7.392305 z"
         style="fill:#000000"
         id="path304" /><path
         d="m 212.88837,47.641936 q -1.9002,0 -3.27122,-0.769698 -1.36301,-0.777715 -2.10063,-2.196846 -0.73763,-1.427147 -0.73763,-3.375445 0,-1.900191 0.73763,-3.335357 0.73762,-1.435165 2.07658,-2.236934 1.34697,-0.801768 3.15896,-0.801768 1.21869,0 2.26901,0.392866 1.05833,0.384849 1.84407,1.162564 0.79375,0.777716 1.23472,1.956316 0.44097,1.170582 0.44097,2.742048 v 0.938069 H 208.1419 v -2.116669 h 7.18384 q 0,-0.737627 -0.32071,-1.306882 -0.3207,-0.569256 -0.88996,-0.889964 -0.56124,-0.328725 -1.30688,-0.328725 -0.77772,0 -1.37904,0.360796 -0.59331,0.352778 -0.93006,0.954105 -0.33674,0.593308 -0.34476,1.322918 v 2.012439 q 0,0.914016 0.33675,1.579484 0.34476,0.665467 0.97014,1.026263 0.62538,0.360796 1.48327,0.360796 0.56925,0 1.0423,-0.160354 0.47304,-0.160353 0.80978,-0.481061 0.33675,-0.320707 0.51314,-0.785733 l 3.15896,0.20846 q -0.24053,1.138511 -0.98617,1.988386 -0.73763,0.841857 -1.90821,1.3149 -1.16256,0.465026 -2.68592,0.465026 z"
         style="fill:#000000"
         id="path306" /><path
         d="M 114.72463,69.979206 V 53.558987 h 6.5745 q 1.81199,0 3.02266,0.537185 1.21067,0.537185 1.82002,1.49129 0.60934,0.946086 0.60934,2.18081 0,0.962122 -0.38485,1.691731 -0.38484,0.721592 -1.05833,1.186618 -0.66547,0.457008 -1.52336,0.649432 v 0.160354 q 0.93807,0.04009 1.75587,0.529167 0.82582,0.489079 1.33896,1.371024 0.51313,0.873928 0.51313,2.084598 0,1.306883 -0.64943,2.333147 -0.64142,1.018246 -1.9002,1.611554 -1.25877,0.593309 -3.10284,0.593309 z m 3.47165,-2.83826 h 2.83025 q 1.4512,0 2.11666,-0.553221 0.66547,-0.561238 0.66547,-1.491289 0,-0.681503 -0.32872,-1.202653 -0.32873,-0.521149 -0.93807,-0.817804 -0.60133,-0.296654 -1.43517,-0.296654 h -2.91042 z m 0,-6.710803 h 2.57368 q 0.71357,0 1.26679,-0.248548 0.56124,-0.256566 0.88195,-0.721592 0.32872,-0.465025 0.32872,-1.114458 0,-0.889963 -0.63339,-1.435165 -0.62538,-0.545203 -1.77993,-0.545203 h -2.63782 z"
         style="fill:#000000"
         id="path308" /><path
         d="M 129.58138,69.979206 V 57.664042 h 3.41553 v 12.315164 z m 1.71578,-13.902666 q -0.76168,0 -1.30688,-0.505114 -0.53718,-0.513132 -0.53718,-1.226706 0,-0.705556 0.53718,-1.21067 0.5452,-0.513132 1.30688,-0.513132 0.76168,0 1.29887,0.513132 0.5452,0.505114 0.5452,1.21067 0,0.713574 -0.5452,1.226706 -0.53719,0.505114 -1.29887,0.505114 z"
         style="fill:#000000"
         id="path310" /><path
         d="M 135.78706,69.979206 V 53.558987 h 3.41553 v 6.173618 h 0.10423 q 0.2245,-0.497097 0.64943,-1.010229 0.43296,-0.521149 1.12248,-0.86591 0.69754,-0.352778 1.73182,-0.352778 1.34697,0 2.48548,0.705557 1.13851,0.697538 1.82002,2.108651 0.6815,1.403095 0.6815,3.519763 0,2.060545 -0.66547,3.479676 -0.65745,1.411112 -1.79596,2.140722 -1.13049,0.721591 -2.53359,0.721591 -0.99419,0 -1.69173,-0.328725 -0.68952,-0.328725 -1.13049,-0.825821 -0.44098,-0.505115 -0.67349,-1.018246 h -0.15234 v 1.97235 z m 3.34337,-6.157582 q 0,1.098423 0.30467,1.916227 0.30468,0.817804 0.88195,1.274812 0.57727,0.44899 1.40309,0.44899 0.83384,0 1.41112,-0.457008 0.57727,-0.465026 0.87392,-1.28283 0.30468,-0.825821 0.30468,-1.900191 0,-1.066352 -0.29666,-1.876138 -0.29665,-0.809786 -0.87393,-1.266794 -0.57727,-0.457008 -1.41913,-0.457008 -0.83384,0 -1.41111,0.440972 -0.56925,0.440973 -0.87393,1.250759 -0.30467,0.809786 -0.30467,1.908209 z"
         style="fill:#000000"
         id="path312" /><path
         d="m 153.48208,53.558987 v 16.420219 h -3.41554 V 53.558987 Z"
         style="fill:#000000"
         id="path314" /><path
         d="m 161.82046,70.219737 q -1.9002,0 -3.27122,-0.769698 -1.36301,-0.777716 -2.10063,-2.196846 -0.73763,-1.427148 -0.73763,-3.375445 0,-1.900191 0.73763,-3.335357 0.73762,-1.435166 2.07658,-2.236934 1.34697,-0.801769 3.15897,-0.801769 1.21868,0 2.269,0.392867 1.05833,0.384849 1.84407,1.162564 0.79375,0.777716 1.23472,1.956315 0.44097,1.170582 0.44097,2.742049 v 0.938069 h -10.39893 v -2.116669 h 7.18384 q 0,-0.737627 -0.32071,-1.306883 -0.3207,-0.569255 -0.88996,-0.889963 -0.56124,-0.328725 -1.30688,-0.328725 -0.77772,0 -1.37904,0.360796 -0.59331,0.352778 -0.93005,0.954104 -0.33675,0.593309 -0.34476,1.322918 v 2.012439 q 0,0.914016 0.33674,1.579484 0.34476,0.665468 0.97014,1.026264 0.62538,0.360796 1.48327,0.360796 0.56926,0 1.0423,-0.160354 0.47304,-0.160354 0.80978,-0.481061 0.33675,-0.320707 0.51314,-0.785733 l 3.15896,0.20846 q -0.24053,1.138511 -0.98617,1.988386 -0.73763,0.841856 -1.90821,1.3149 -1.16256,0.465026 -2.68592,0.465026 z"
         style="fill:#000000"
         id="path316" /><path
         d="m 120.2889,92.557007 h -4.81061 V 76.136788 h 5.09925 q 2.34918,0 4.01686,0.978158 1.67569,0.978157 2.56565,2.806189 0.88997,1.828033 0.88997,4.385674 0,2.581695 -0.91402,4.43378 -0.906,1.844067 -2.64583,2.830243 -1.73182,0.986175 -4.20127,0.986175 z m -3.3113,-1.346971 h 3.2231 q 2.11667,0 3.54382,-0.833839 1.42715,-0.83384 2.14072,-2.381253 0.71358,-1.547413 0.71358,-3.688135 -0.008,-2.124686 -0.70556,-3.656064 -0.68952,-1.531378 -2.05253,-2.349182 -1.35499,-0.817804 -3.35139,-0.817804 h -3.51174 z"
         style="font-weight:300;-inkscape-font-specification:'Inter V Light';fill:#000000"
         id="path318" /><path
         d="m 136.1639,92.813573 q -1.59552,0 -2.82222,-0.809786 -1.21869,-0.809787 -1.90821,-2.236935 -0.68952,-1.435165 -0.68952,-3.311303 0,-1.892174 0.68952,-3.32734 0.68952,-1.443183 1.90821,-2.244951 1.2267,-0.809787 2.82222,-0.809787 1.59552,0 2.81421,0.809787 1.21869,0.809786 1.90821,2.244951 0.69754,1.435166 0.69754,3.32734 0,1.876138 -0.68952,3.311303 -0.68952,1.427148 -1.91623,2.236935 -1.21869,0.809786 -2.81421,0.809786 z m 0,-1.306883 q 1.28283,0 2.1728,-0.689521 0.88996,-0.689521 1.34697,-1.83605 0.46502,-1.146529 0.46502,-2.52557 0,-1.379042 -0.46502,-2.533589 -0.45701,-1.154546 -1.34697,-1.852085 -0.88997,-0.697539 -2.1728,-0.697539 -1.27481,0 -2.17279,0.697539 -0.88996,0.697539 -1.35499,1.852085 -0.45701,1.154547 -0.45701,2.533589 0,1.379041 0.45701,2.52557 0.46503,1.146529 1.35499,1.83605 0.88996,0.689521 2.17279,0.689521 z"
         style="font-weight:300;-inkscape-font-specification:'Inter V Light';fill:#000000"
         id="path320" /><path
         d="m 149.5294,92.813573 q -1.65164,0 -2.87835,-0.825822 -1.21868,-0.825821 -1.89217,-2.260987 -0.67348,-1.435166 -0.67348,-3.271215 0,-1.852086 0.6815,-3.295269 0.68952,-1.443183 1.90821,-2.260987 1.21869,-0.825822 2.83024,-0.825822 1.23472,0 2.23693,0.481062 1.00222,0.473043 1.65165,1.338953 0.65745,0.857892 0.82582,2.004421 h -1.44318 q -0.2245,-1.042299 -1.08239,-1.779926 -0.84988,-0.745645 -2.16478,-0.745645 -1.1786,0 -2.08459,0.641415 -0.906,0.633397 -1.41913,1.771909 -0.50512,1.130493 -0.50512,2.621782 0,1.499308 0.4971,2.653854 0.49709,1.146529 1.39507,1.795962 0.906,0.649432 2.11667,0.649432 0.81781,0 1.49129,-0.304672 0.68151,-0.31269 1.13851,-0.881945 0.46503,-0.569256 0.62538,-1.354989 h 1.44319 q -0.16036,1.114458 -0.79375,1.988386 -0.62538,0.86591 -1.62759,1.363006 -0.9942,0.497097 -2.27703,0.497097 z"
         style="font-weight:300;-inkscape-font-specification:'Inter V Light';fill:#000000"
         id="path322" /><path
         d="m 165.55676,82.943803 -1.30688,0.368813 q -0.19243,-0.55322 -0.5452,-1.00221 -0.35278,-0.448991 -0.92204,-0.713574 -0.56124,-0.264584 -1.39508,-0.264584 -1.25075,0 -2.05252,0.593309 -0.80177,0.593308 -0.80177,1.531377 0,0.793751 0.5452,1.290848 0.55322,0.489078 1.69975,0.777715 l 1.8601,0.457008 q 1.54742,0.376831 2.31711,1.194635 0.77772,0.817804 0.77772,2.052528 0,1.042299 -0.57727,1.852085 -0.57728,0.809786 -1.61156,1.274812 -1.02626,0.457008 -2.38125,0.457008 -1.80398,0 -2.97456,-0.809786 -1.17058,-0.817804 -1.49931,-2.3572 l 1.37102,-0.336743 q 0.26459,1.098423 1.03429,1.659661 0.77771,0.561238 2.04451,0.561238 1.41913,0 2.269,-0.633397 0.84988,-0.641415 0.84988,-1.603537 0,-0.745645 -0.4971,-1.250759 -0.4971,-0.513132 -1.50733,-0.753662 l -2.01243,-0.481061 q -1.60354,-0.384849 -2.37324,-1.218688 -0.7697,-0.83384 -0.7697,-2.068563 0,-1.018246 0.55322,-1.787944 0.55322,-0.777715 1.52336,-1.218688 0.97014,-0.440973 2.21288,-0.440973 1.69174,0 2.70196,0.769698 1.01825,0.76168 1.46724,2.100634 z"
         style="font-weight:300;-inkscape-font-specification:'Inter V Light';fill:#000000"
         id="path324" /></g></g></svg>
