<?xml version="1.0" encoding="UTF-8" standalone="no"?>
<!-- Created with Inkscape (http://www.inkscape.org/) -->

<svg
   width="1000"
   height="784.85901"
   viewBox="0 0 264.58334 207.66061"
   version="1.1"
   id="svg195"
   xml:space="preserve"
   xmlns="http://www.w3.org/2000/svg"
   xmlns:svg="http://www.w3.org/2000/svg"><defs
     id="defs192" /><path
     style="fill:#000000;stroke-width:0.99093"
     d="m 56.550842,192.47455 -55.77964993,-14.31252 -0.74041678,-0.0279 -0.74045168,-0.0279 V 88.719034 -0.67058113 L 54.329524,13.179413 l 55.039206,13.850094 3.70218,0.985694 3.7022,0.985704 V 51.340292 73.679578 H 98.508907 80.244885 v 15.415681 15.415621 h 18.264022 18.264203 v 51.22002 51.22003 l -2.22132,-0.082 -2.22137,-0.0821 -55.779578,-14.31244 z m 89.839718,-36.7217 v -51.19794 l 18.51087,-0.27055 18.51092,-0.27047 0.27264,-15.166979 0.27261,-15.167127 H 165.17416 146.39065 V 51.302188 28.924502 l 0.24688,-0.01 0.24692,-0.01 58.4946,-14.807092 58.49446,-14.80709432 V 88.697547 178.10456 h -0.55135 -0.55129 l -56.6346,14.42113 -56.63453,14.42126 h -1.55555 -1.55549 v -51.198 z"
     id="path1621" /></svg>
