<?xml version="1.0" encoding="UTF-8" standalone="no"?>
<!-- Created with Inkscape (http://www.inkscape.org/) -->

<svg
   width="1023.9999"
   height="511.99997"
   viewBox="0 0 270.9333 135.46664"
   version="1.1"
   id="svg1661"
   xml:space="preserve"
   inkscape:version="1.2.2 (b0a8486541, 2022-12-01)"
   sodipodi:docname="my-wordmark-black.svg"
   xmlns:inkscape="http://www.inkscape.org/namespaces/inkscape"
   xmlns:sodipodi="http://sodipodi.sourceforge.net/DTD/sodipodi-0.dtd"
   xmlns="http://www.w3.org/2000/svg"
   xmlns:svg="http://www.w3.org/2000/svg"><sodipodi:namedview
     id="namedview1663"
     pagecolor="#ffffff"
     bordercolor="#000000"
     borderopacity="0.25"
     inkscape:showpageshadow="2"
     inkscape:pageopacity="0.0"
     inkscape:pagecheckerboard="0"
     inkscape:deskcolor="#d1d1d1"
     inkscape:document-units="mm"
     showgrid="false"
     inkscape:zoom="0.74564394"
     inkscape:cx="292.36474"
     inkscape:cy="333.93955"
     inkscape:window-width="1920"
     inkscape:window-height="1017"
     inkscape:window-x="-8"
     inkscape:window-y="-8"
     inkscape:window-maximized="1"
     inkscape:current-layer="layer1" /><defs
     id="defs1658" /><g
     inkscape:label="Ebene 1"
     inkscape:groupmode="layer"
     id="layer1"><g
       id="g1672"
       transform="matrix(0.28799948,0,0,0.28799948,31.493437,41.381345)"><g
         inkscape:label="Ebene 1"
         id="layer1-4"
         style="display:none" /><path
         style="fill:#000000;stroke-width:0.99093"
         d="m 56.550842,192.47455 -55.77964993,-14.31252 -0.74041678,-0.0279 -0.74045168,-0.0279 V 88.719034 -0.67058113 L 54.329524,13.179413 l 55.039206,13.850094 3.70218,0.985694 3.7022,0.985704 V 51.340292 73.679578 H 98.508907 80.244885 v 15.415681 15.415621 h 18.264022 18.264203 v 51.22002 51.22003 l -2.22132,-0.082 -2.22137,-0.0821 -55.779578,-14.31244 z m 89.839718,-36.7217 v -51.19794 l 18.51087,-0.27055 18.51092,-0.27047 0.27264,-15.166979 0.27261,-15.167127 H 165.17416 146.39065 V 51.302188 28.924502 l 0.24688,-0.01 0.24692,-0.01 58.4946,-14.807092 58.49446,-14.80709432 V 88.697547 178.10456 h -0.55135 -0.55129 l -56.6346,14.42113 -56.63453,14.42126 h -1.55555 -1.55549 v -51.198 z"
         id="path1621" /></g><g
       aria-label="my.
awesome
Bible"
       id="text1728"
       style="font-weight:bold;font-size:22.5778px;line-height:1;font-family:'Inter V';-inkscape-font-specification:'Inter V Bold';fill:#ffffff;stroke-width:0.264583"><path
         d="M 114.41995,47.401405 V 35.086241 h 4.20127 v 2.341164 h 0.12828 q 0.38485,-1.154546 1.3149,-1.828032 0.93006,-0.673485 2.21288,-0.673485 1.29887,0 2.23694,0.68952 0.93807,0.681504 1.13049,1.811997 h 0.12829 q 0.31269,-1.130493 1.33093,-1.811997 1.01825,-0.68952 2.38927,-0.68952 1.77191,0 2.87033,1.138511 1.10644,1.138511 1.10644,3.030685 v 8.306321 h -4.42576 V 40.21756 q 0,-0.809787 -0.4089,-1.266795 -0.4089,-0.465025 -1.09842,-0.465025 -0.68151,0 -1.08239,0.465025 -0.39287,0.457008 -0.39287,1.266795 v 7.183845 h -4.23334 V 40.21756 q 0,-0.809787 -0.4089,-1.266795 -0.4089,-0.465025 -1.09842,-0.465025 -0.45701,0 -0.78573,0.20846 -0.32873,0.208459 -0.51314,0.601326 -0.17638,0.384849 -0.17638,0.922034 v 7.183845 z"
         style="font-weight:900;-inkscape-font-specification:'Inter V Heavy';fill:#000000"
         id="path533" /><path
         d="m 137.89572,52.019592 q -0.76168,0 -1.4512,-0.120265 -0.68952,-0.112248 -1.21067,-0.31269 l 0.96212,-3.142933 q 0.54521,0.192425 0.9942,0.248549 0.45701,0.05612 0.77771,-0.06414 0.32873,-0.120265 0.47305,-0.457008 l 0.0962,-0.224495 -4.32955,-12.860367 h 4.61819 l 1.98838,8.530817 h 0.12828 l 2.02046,-8.530817 h 4.65026 l -4.48991,13.341428 q -0.33674,1.018246 -0.97815,1.828032 -0.6334,0.817804 -1.66768,1.290847 -1.03428,0.473044 -2.5817,0.473044 z"
         style="font-weight:900;-inkscape-font-specification:'Inter V Heavy';fill:#000000"
         id="path535" /><path
         d="m 150.49955,47.657971 q -0.93005,0 -1.59552,-0.649432 -0.65745,-0.65745 -0.64943,-1.59552 -0.008,-0.914016 0.64943,-1.563448 0.66547,-0.649433 1.59552,-0.649433 0.88195,0 1.55543,0.649433 0.68151,0.649432 0.68952,1.563448 -0.008,0.62538 -0.32872,1.138512 -0.31269,0.505114 -0.8178,0.809786 -0.50512,0.296654 -1.09843,0.296654 z"
         style="font-weight:900;-inkscape-font-specification:'Inter V Heavy';fill:#000000"
         id="path537" /><path
         d="m 118.17223,70.211719 q -1.1786,0 -2.10063,-0.408902 -0.92204,-0.41692 -1.45922,-1.226706 -0.52917,-0.817804 -0.52917,-2.036492 0,-1.026263 0.37683,-1.723802 0.37683,-0.697539 1.02627,-1.122476 0.64943,-0.424937 1.47525,-0.641415 0.83384,-0.216477 1.74786,-0.304672 1.07436,-0.112247 1.73181,-0.20846 0.65746,-0.104229 0.95411,-0.304672 0.29665,-0.200442 0.29665,-0.593308 v -0.04811 q 0,-0.76168 -0.48106,-1.1786 -0.47304,-0.41692 -1.34697,-0.41692 -0.92203,0 -1.46723,0.408902 -0.54521,0.400885 -0.7216,1.010229 l -3.15896,-0.256566 q 0.24053,-1.122476 0.94608,-1.94028 0.70556,-0.825822 1.82002,-1.266794 1.12247,-0.448991 2.59773,-0.448991 1.02626,0 1.96433,0.240531 0.94609,0.24053 1.6757,0.745645 0.73762,0.505114 1.16256,1.298865 0.42494,0.785733 0.42494,1.884156 v 8.306321 h -3.23915 v -1.707767 h -0.0962 q -0.29665,0.577274 -0.79375,1.018246 -0.4971,0.432955 -1.19464,0.681503 -0.69753,0.240531 -1.61155,0.240531 z m 0.97816,-2.357199 q 0.75366,0 1.33093,-0.296655 0.57728,-0.304672 0.906,-0.817804 0.32873,-0.513131 0.32873,-1.162564 v -1.306883 q -0.16036,0.10423 -0.44098,0.192425 -0.2726,0.08018 -0.61736,0.152336 -0.34476,0.06414 -0.68952,0.120265 -0.34476,0.04811 -0.62538,0.08819 -0.60132,0.08819 -1.05031,0.280619 -0.44899,0.192424 -0.69754,0.521149 -0.24855,0.320708 -0.24855,0.801769 0,0.697538 0.50511,1.066352 0.51313,0.360796 1.29887,0.360796 z"
         style="fill:#000000"
         id="path539" /><path
         d="m 130.19074,69.979206 -3.3514,-12.315164 h 3.45563 l 1.9082,8.274251 h 0.11225 l 1.98839,-8.274251 h 3.39148 l 2.02046,8.226145 h 0.10423 l 1.87613,-8.226145 h 3.44761 l -3.34338,12.315164 h -3.61597 l -2.11667,-7.745084 h -0.15234 l -2.11667,7.745084 z"
         style="fill:#000000"
         id="path541" /><path
         d="m 152.26664,70.219737 q -1.9002,0 -3.27122,-0.769698 -1.36301,-0.777716 -2.10063,-2.196846 -0.73763,-1.427148 -0.73763,-3.375445 0,-1.900191 0.73763,-3.335357 0.73762,-1.435166 2.07658,-2.236934 1.34697,-0.801769 3.15897,-0.801769 1.21868,0 2.269,0.392867 1.05833,0.384849 1.84407,1.162564 0.79375,0.777716 1.23472,1.956315 0.44097,1.170582 0.44097,2.742049 v 0.938069 h -10.39893 v -2.116669 h 7.18384 q 0,-0.737627 -0.32071,-1.306883 -0.3207,-0.569255 -0.88996,-0.889963 -0.56124,-0.328725 -1.30688,-0.328725 -0.77772,0 -1.37904,0.360796 -0.59331,0.352778 -0.93005,0.954104 -0.33675,0.593309 -0.34476,1.322918 v 2.012439 q 0,0.914016 0.33674,1.579484 0.34476,0.665468 0.97014,1.026264 0.62538,0.360796 1.48327,0.360796 0.56926,0 1.0423,-0.160354 0.47304,-0.160354 0.80979,-0.481061 0.33674,-0.320707 0.51313,-0.785733 l 3.15896,0.20846 q -0.24053,1.138511 -0.98617,1.988386 -0.73763,0.841856 -1.90821,1.3149 -1.16256,0.465026 -2.68592,0.465026 z"
         style="fill:#000000"
         id="path543" /><path
         d="m 170.39462,61.175788 -3.12689,0.192424 q -0.0802,-0.400884 -0.34476,-0.721591 -0.26459,-0.328725 -0.69754,-0.52115 -0.42494,-0.200442 -1.01825,-0.200442 -0.79375,0 -1.33895,0.336743 -0.54521,0.328725 -0.54521,0.881945 0,0.440973 0.35278,0.745645 0.35278,0.304672 1.21067,0.489079 l 2.22892,0.44899 q 1.79596,0.368814 2.67791,1.186618 0.88194,0.817803 0.88194,2.148739 0,1.21067 -0.71357,2.124687 -0.70556,0.914016 -1.94028,1.427147 -1.22671,0.505115 -2.83024,0.505115 -2.4454,0 -3.8966,-1.018246 -1.44318,-1.026264 -1.69173,-2.790155 l 3.35941,-0.176389 q 0.15233,0.745645 0.73763,1.138511 0.58529,0.384849 1.4993,0.384849 0.89798,0 1.44319,-0.34476 0.55322,-0.352778 0.56123,-0.905998 -0.008,-0.465026 -0.39286,-0.761681 -0.38485,-0.304672 -1.18662,-0.465025 l -2.1327,-0.424938 q -1.80398,-0.360795 -2.68593,-1.250758 -0.87393,-0.889963 -0.87393,-2.269005 0,-1.186618 0.64142,-2.04451 0.64943,-0.857892 1.82001,-1.322918 1.1786,-0.465026 2.75809,-0.465026 2.33314,0 3.6721,0.986176 1.34697,0.986175 1.57146,2.685924 z"
         style="fill:#000000"
         id="path545" /><path
         d="m 178.39629,70.219737 q -1.86812,0 -3.23113,-0.793751 -1.35499,-0.801769 -2.09261,-2.228917 -0.73763,-1.435165 -0.73763,-3.327339 0,-1.908209 0.73763,-3.335357 0.73762,-1.435165 2.09261,-2.228916 1.36301,-0.801769 3.23113,-0.801769 1.86812,0 3.22311,0.801769 1.363,0.793751 2.10063,2.228916 0.73763,1.427148 0.73763,3.335357 0,1.892174 -0.73763,3.327339 -0.73763,1.427148 -2.10063,2.228917 -1.35499,0.793751 -3.22311,0.793751 z m 0.016,-2.645836 q 0.84988,0 1.41913,-0.481061 0.56926,-0.489079 0.8579,-1.330936 0.29665,-0.841857 0.29665,-1.916227 0,-1.07437 -0.29665,-1.916227 -0.28864,-0.841856 -0.8579,-1.330935 -0.56925,-0.489079 -1.41913,-0.489079 -0.85789,0 -1.44318,0.489079 -0.57727,0.489079 -0.87393,1.330935 -0.28863,0.841857 -0.28863,1.916227 0,1.07437 0.28863,1.916227 0.29666,0.841857 0.87393,1.330936 0.58529,0.481061 1.44318,0.481061 z"
         style="fill:#000000"
         id="path547" /><path
         d="M 186.68656,69.979206 V 57.664042 h 3.25518 v 2.172793 h 0.14432 q 0.38485,-1.082388 1.28283,-1.707767 0.89798,-0.62538 2.14874,-0.62538 1.26679,0 2.15676,0.633397 0.88996,0.62538 1.18661,1.69975 h 0.12829 q 0.37683,-1.058335 1.363,-1.691732 0.9942,-0.641415 2.34918,-0.641415 1.72381,0 2.79818,1.098423 1.08238,1.090405 1.08238,3.094827 v 8.282268 h -3.40751 v -7.608783 q 0,-1.026264 -0.5452,-1.539395 -0.54521,-0.513132 -1.36301,-0.513132 -0.93005,0 -1.4512,0.593308 -0.52115,0.585291 -0.52115,1.547414 v 7.520588 h -3.31131 v -7.680942 q 0,-0.905998 -0.52114,-1.443183 -0.51314,-0.537185 -1.35499,-0.537185 -0.56926,0 -1.02627,0.288636 -0.44899,0.280619 -0.71357,0.793751 -0.26458,0.505114 -0.26458,1.186618 v 7.392305 z"
         style="fill:#000000"
         id="path549" /><path
         d="m 212.88837,70.219737 q -1.9002,0 -3.27122,-0.769698 -1.36301,-0.777716 -2.10063,-2.196846 -0.73763,-1.427148 -0.73763,-3.375445 0,-1.900191 0.73763,-3.335357 0.73762,-1.435166 2.07658,-2.236934 1.34697,-0.801769 3.15896,-0.801769 1.21869,0 2.26901,0.392867 1.05833,0.384849 1.84407,1.162564 0.79375,0.777716 1.23472,1.956315 0.44097,1.170582 0.44097,2.742049 v 0.938069 H 208.1419 v -2.116669 h 7.18384 q 0,-0.737627 -0.32071,-1.306883 -0.3207,-0.569255 -0.88996,-0.889963 -0.56124,-0.328725 -1.30688,-0.328725 -0.77772,0 -1.37904,0.360796 -0.59331,0.352778 -0.93006,0.954104 -0.33674,0.593309 -0.34476,1.322918 v 2.012439 q 0,0.914016 0.33675,1.579484 0.34476,0.665468 0.97014,1.026264 0.62538,0.360796 1.48327,0.360796 0.56925,0 1.0423,-0.160354 0.47304,-0.160354 0.80978,-0.481061 0.33675,-0.320707 0.51314,-0.785733 l 3.15896,0.20846 q -0.24053,1.138511 -0.98617,1.988386 -0.73763,0.841856 -1.90821,1.3149 -1.16256,0.465026 -2.68592,0.465026 z"
         style="fill:#000000"
         id="path551" /><path
         d="M 114.72463,92.557007 V 76.136788 h 6.5745 q 1.81199,0 3.02266,0.537185 1.21067,0.537185 1.82002,1.491289 0.60934,0.946087 0.60934,2.180811 0,0.962122 -0.38485,1.691731 -0.38484,0.721592 -1.05833,1.186618 -0.66547,0.457008 -1.52336,0.649432 v 0.160354 q 0.93807,0.04009 1.75587,0.529167 0.82582,0.489079 1.33896,1.371024 0.51313,0.873928 0.51313,2.084598 0,1.306883 -0.64943,2.333146 -0.64142,1.018246 -1.9002,1.611555 -1.25877,0.593309 -3.10284,0.593309 z m 3.47165,-2.838261 h 2.83025 q 1.4512,0 2.11666,-0.55322 0.66547,-0.561238 0.66547,-1.491289 0,-0.681504 -0.32872,-1.202653 -0.32873,-0.52115 -0.93807,-0.817804 -0.60133,-0.296654 -1.43517,-0.296654 h -2.91042 z m 0,-6.710802 h 2.57368 q 0.71357,0 1.26679,-0.248548 0.56124,-0.256566 0.88195,-0.721592 0.32872,-0.465026 0.32872,-1.114458 0,-0.889963 -0.63339,-1.435166 -0.62538,-0.545202 -1.77993,-0.545202 h -2.63782 z"
         style="fill:#000000"
         id="path553" /><path
         d="M 129.58138,92.557007 V 80.241843 h 3.41553 v 12.315164 z m 1.71578,-13.902666 q -0.76168,0 -1.30688,-0.505114 -0.53718,-0.513132 -0.53718,-1.226706 0,-0.705556 0.53718,-1.21067 0.5452,-0.513132 1.30688,-0.513132 0.76168,0 1.29887,0.513132 0.5452,0.505114 0.5452,1.21067 0,0.713574 -0.5452,1.226706 -0.53719,0.505114 -1.29887,0.505114 z"
         style="fill:#000000"
         id="path555" /><path
         d="M 135.78706,92.557007 V 76.136788 h 3.41553 v 6.173618 h 0.10423 q 0.2245,-0.497097 0.64943,-1.010229 0.43296,-0.521149 1.12248,-0.86591 0.69754,-0.352778 1.73182,-0.352778 1.34697,0 2.48548,0.705556 1.13851,0.697539 1.82002,2.108652 0.6815,1.403094 0.6815,3.519763 0,2.060545 -0.66547,3.479675 -0.65745,1.411113 -1.79596,2.140722 -1.13049,0.721592 -2.53359,0.721592 -0.99419,0 -1.69173,-0.328725 -0.68952,-0.328725 -1.13049,-0.825822 -0.44098,-0.505114 -0.67349,-1.018246 h -0.15234 v 1.972351 z m 3.34337,-6.157582 q 0,1.098423 0.30467,1.916227 0.30468,0.817803 0.88195,1.274811 0.57727,0.448991 1.40309,0.448991 0.83384,0 1.41112,-0.457008 0.57727,-0.465026 0.87392,-1.28283 0.30468,-0.825821 0.30468,-1.900191 0,-1.066352 -0.29666,-1.876138 -0.29665,-0.809787 -0.87393,-1.266795 -0.57727,-0.457008 -1.41913,-0.457008 -0.83384,0 -1.41111,0.440973 -0.56925,0.440973 -0.87393,1.250759 -0.30467,0.809786 -0.30467,1.908209 z"
         style="fill:#000000"
         id="path557" /><path
         d="m 153.48208,76.136788 v 16.420219 h -3.41554 V 76.136788 Z"
         style="fill:#000000"
         id="path559" /><path
         d="m 161.82046,92.797537 q -1.9002,0 -3.27122,-0.769697 -1.36301,-0.777716 -2.10063,-2.196846 -0.73763,-1.427148 -0.73763,-3.375445 0,-1.900192 0.73763,-3.335357 0.73762,-1.435166 2.07658,-2.236934 1.34697,-0.801769 3.15897,-0.801769 1.21868,0 2.269,0.392867 1.05833,0.384849 1.84407,1.162564 0.79375,0.777715 1.23472,1.956315 0.44097,1.170582 0.44097,2.742048 v 0.938069 h -10.39893 v -2.116668 h 7.18384 q 0,-0.737627 -0.32071,-1.306883 -0.3207,-0.569256 -0.88996,-0.889963 -0.56124,-0.328725 -1.30688,-0.328725 -0.77772,0 -1.37904,0.360796 -0.59331,0.352778 -0.93005,0.954104 -0.33675,0.593309 -0.34476,1.322918 v 2.012439 q 0,0.914016 0.33674,1.579484 0.34476,0.665468 0.97014,1.026264 0.62538,0.360796 1.48327,0.360796 0.56926,0 1.0423,-0.160354 0.47304,-0.160354 0.80978,-0.481061 0.33675,-0.320708 0.51314,-0.785733 l 3.15896,0.208459 q -0.24053,1.138512 -0.98617,1.988386 -0.73763,0.841857 -1.90821,1.314901 -1.16256,0.465025 -2.68592,0.465025 z"
         style="fill:#000000"
         id="path561" /></g></g></svg>
