<?xml version="1.0" encoding="UTF-8" standalone="no"?>
<!-- Created with Inkscape (http://www.inkscape.org/) -->

<svg
   width="1023.9999"
   height="511.99997"
   viewBox="0 0 270.9333 135.46664"
   version="1.1"
   id="svg1661"
   xml:space="preserve"
   inkscape:version="1.2.2 (b0a8486541, 2022-12-01)"
   sodipodi:docname="wordmark_black.svg"
   xmlns:inkscape="http://www.inkscape.org/namespaces/inkscape"
   xmlns:sodipodi="http://sodipodi.sourceforge.net/DTD/sodipodi-0.dtd"
   xmlns="http://www.w3.org/2000/svg"
   xmlns:svg="http://www.w3.org/2000/svg"><sodipodi:namedview
     id="namedview1663"
     pagecolor="#ffffff"
     bordercolor="#000000"
     borderopacity="0.25"
     inkscape:showpageshadow="2"
     inkscape:pageopacity="0.0"
     inkscape:pagecheckerboard="0"
     inkscape:deskcolor="#d1d1d1"
     inkscape:document-units="mm"
     showgrid="false"
     inkscape:zoom="0.74564394"
     inkscape:cx="292.36474"
     inkscape:cy="333.93955"
     inkscape:window-width="1920"
     inkscape:window-height="1017"
     inkscape:window-x="-8"
     inkscape:window-y="-8"
     inkscape:window-maximized="1"
     inkscape:current-layer="layer1" /><defs
     id="defs1658" /><g
     inkscape:label="Ebene 1"
     inkscape:groupmode="layer"
     id="layer1"><g
       id="g1672"
       transform="matrix(0.28799948,0,0,0.28799948,31.493437,41.381345)"><g
         inkscape:label="Ebene 1"
         id="layer1-4"
         style="display:none" /><path
         style="fill:#000000;stroke-width:0.99093"
         d="m 56.550842,192.47455 -55.77964993,-14.31252 -0.74041678,-0.0279 -0.74045168,-0.0279 V 88.719034 -0.67058113 L 54.329524,13.179413 l 55.039206,13.850094 3.70218,0.985694 3.7022,0.985704 V 51.340292 73.679578 H 98.508907 80.244885 v 15.415681 15.415621 h 18.264022 18.264203 v 51.22002 51.22003 l -2.22132,-0.082 -2.22137,-0.0821 -55.779578,-14.31244 z m 89.839718,-36.7217 v -51.19794 l 18.51087,-0.27055 18.51092,-0.27047 0.27264,-15.166979 0.27261,-15.167127 H 165.17416 146.39065 V 51.302188 28.924502 l 0.24688,-0.01 0.24692,-0.01 58.4946,-14.807092 58.49446,-14.80709432 V 88.697547 178.10456 h -0.55135 -0.55129 l -56.6346,14.42113 -56.63453,14.42126 h -1.55555 -1.55549 v -51.198 z"
         id="path1621" /></g><g
       aria-label="awesome
Bible"
       id="text1728"
       style="font-weight:bold;font-size:22.5778px;line-height:1;font-family:'Inter V';-inkscape-font-specification:'Inter V Bold';fill:#ffffff;stroke-width:0.264583"><path
         d="m 119.94642,68.92424 q -1.1786,0 -2.10063,-0.408902 -0.92203,-0.41692 -1.45922,-1.226706 -0.52917,-0.817804 -0.52917,-2.036492 0,-1.026264 0.37683,-1.723802 0.37684,-0.697539 1.02627,-1.122476 0.64943,-0.424938 1.47525,-0.641415 0.83384,-0.216478 1.74786,-0.304672 1.07437,-0.112248 1.73182,-0.20846 0.65745,-0.10423 0.9541,-0.304672 0.29666,-0.200442 0.29666,-0.593309 v -0.04811 q 0,-0.76168 -0.48106,-1.178599 -0.47305,-0.41692 -1.34698,-0.41692 -0.92203,0 -1.46723,0.408902 -0.5452,0.400884 -0.72159,1.010228 l -3.15897,-0.256566 q 0.24053,-1.122476 0.94609,-1.940279 0.70555,-0.825822 1.82001,-1.266795 1.12248,-0.44899 2.59773,-0.44899 1.02626,0 1.96433,0.24053 0.94609,0.240531 1.6757,0.745645 0.73763,0.505114 1.16256,1.298865 0.42494,0.785733 0.42494,1.884156 v 8.306322 h -3.23914 V 66.98396 h -0.0962 q -0.29665,0.577273 -0.79375,1.018246 -0.49709,0.432955 -1.19463,0.681503 -0.69754,0.240531 -1.61156,0.240531 z m 0.97816,-2.3572 q 0.75366,0 1.33094,-0.296654 0.57727,-0.304672 0.90599,-0.817804 0.32873,-0.513132 0.32873,-1.162564 v -1.306883 q -0.16035,0.10423 -0.44097,0.192424 -0.2726,0.08018 -0.61736,0.152336 -0.34477,0.06414 -0.68953,0.120266 -0.34476,0.04811 -0.62538,0.08819 -0.60132,0.08819 -1.05031,0.280619 -0.44899,0.192425 -0.69754,0.52115 -0.24855,0.320707 -0.24855,0.801768 0,0.697539 0.50512,1.066352 0.51313,0.360796 1.29886,0.360796 z"
         style="fill:#000000"
         id="path766" /><path
         d="m 131.96493,68.691727 -3.35139,-12.315164 h 3.45562 l 1.90821,8.27425 h 0.11225 l 1.98838,-8.27425 h 3.39148 l 2.02046,8.226144 h 0.10423 l 1.87614,-8.226144 h 3.4476 l -3.34337,12.315164 h -3.61598 l -2.11667,-7.745084 h -0.15233 l -2.11667,7.745084 z"
         style="fill:#000000"
         id="path768" /><path
         d="m 154.04083,68.932257 q -1.90019,0 -3.27122,-0.769698 -1.363,-0.777715 -2.10063,-2.196845 -0.73763,-1.427148 -0.73763,-3.375446 0,-1.900191 0.73763,-3.335356 0.73763,-1.435166 2.07658,-2.236935 1.34697,-0.801768 3.15897,-0.801768 1.21869,0 2.269,0.392867 1.05834,0.384848 1.84407,1.162564 0.79375,0.777715 1.23472,1.956315 0.44098,1.170582 0.44098,2.742048 v 0.938069 h -10.39894 v -2.116669 h 7.18385 q 0,-0.737627 -0.32071,-1.306882 -0.32071,-0.569256 -0.88997,-0.889963 -0.56123,-0.328725 -1.30688,-0.328725 -0.77771,0 -1.37904,0.360796 -0.59331,0.352778 -0.93005,0.954104 -0.33674,0.593309 -0.34476,1.322918 v 2.012439 q 0,0.914016 0.33674,1.579484 0.34476,0.665468 0.97014,1.026264 0.62538,0.360795 1.48327,0.360795 0.56926,0 1.0423,-0.160353 0.47305,-0.160354 0.80979,-0.481061 0.33674,-0.320708 0.51313,-0.785733 l 3.15897,0.208459 q -0.24053,1.138512 -0.98618,1.988386 -0.73762,0.841857 -1.90821,1.314901 -1.16256,0.465025 -2.68592,0.465025 z"
         style="fill:#000000"
         id="path770" /><path
         d="m 172.16882,59.888309 -3.1269,0.192424 q -0.0802,-0.400884 -0.34476,-0.721592 -0.26459,-0.328725 -0.69754,-0.521149 -0.42494,-0.200442 -1.01825,-0.200442 -0.79375,0 -1.33895,0.336743 -0.5452,0.328725 -0.5452,0.881945 0,0.440973 0.35278,0.745645 0.35277,0.304672 1.21067,0.489078 l 2.22891,0.448991 q 1.79596,0.368813 2.67791,1.186617 0.88194,0.817804 0.88194,2.14874 0,1.21067 -0.71357,2.124686 -0.70556,0.914016 -1.94028,1.427148 -1.2267,0.505114 -2.83024,0.505114 -2.4454,0 -3.8966,-1.018246 -1.44318,-1.026263 -1.69173,-2.790154 l 3.35941,-0.176389 q 0.15234,0.745645 0.73763,1.138511 0.58529,0.384849 1.49931,0.384849 0.89798,0 1.44318,-0.34476 0.55322,-0.352779 0.56124,-0.905999 -0.008,-0.465026 -0.39287,-0.76168 -0.38485,-0.304672 -1.18662,-0.465026 l -2.1327,-0.424937 q -1.80398,-0.360796 -2.68593,-1.250759 -0.87392,-0.889963 -0.87392,-2.269005 0,-1.186617 0.64141,-2.044509 0.64943,-0.857893 1.82002,-1.322918 1.1786,-0.465026 2.75808,-0.465026 2.33315,0 3.6721,0.986175 1.34697,0.986175 1.57147,2.685925 z"
         style="fill:#000000"
         id="path772" /><path
         d="m 180.17048,68.932257 q -1.86812,0 -3.23113,-0.793751 -1.35498,-0.801768 -2.09261,-2.228916 -0.73763,-1.435166 -0.73763,-3.327339 0,-1.908209 0.73763,-3.335357 0.73763,-1.435166 2.09261,-2.228917 1.36301,-0.801768 3.23113,-0.801768 1.86812,0 3.22311,0.801768 1.36301,0.793751 2.10063,2.228917 0.73763,1.427148 0.73763,3.335357 0,1.892173 -0.73763,3.327339 -0.73762,1.427148 -2.10063,2.228916 -1.35499,0.793751 -3.22311,0.793751 z m 0.016,-2.645836 q 0.84987,0 1.41913,-0.481061 0.56925,-0.489079 0.85789,-1.330936 0.29665,-0.841857 0.29665,-1.916226 0,-1.07437 -0.29665,-1.916227 -0.28864,-0.841857 -0.85789,-1.330936 -0.56926,-0.489078 -1.41913,-0.489078 -0.85789,0 -1.44319,0.489078 -0.57727,0.489079 -0.87392,1.330936 -0.28864,0.841857 -0.28864,1.916227 0,1.074369 0.28864,1.916226 0.29665,0.841857 0.87392,1.330936 0.5853,0.481061 1.44319,0.481061 z"
         style="fill:#000000"
         id="path774" /><path
         d="M 188.46075,68.691727 V 56.376563 h 3.25518 v 2.172792 h 0.14432 q 0.38485,-1.082387 1.28283,-1.707767 0.89798,-0.625379 2.14874,-0.625379 1.2668,0 2.15676,0.633397 0.88996,0.625379 1.18662,1.699749 h 0.12828 q 0.37683,-1.058334 1.36301,-1.691731 0.99419,-0.641415 2.34918,-0.641415 1.7238,0 2.79817,1.098423 1.08239,1.090405 1.08239,3.094826 v 8.282269 h -3.40752 v -7.608783 q 0,-1.026264 -0.5452,-1.539396 -0.5452,-0.513132 -1.36301,-0.513132 -0.93005,0 -1.4512,0.593309 -0.52115,0.585291 -0.52115,1.547413 v 7.520589 h -3.3113 v -7.680942 q 0,-0.905999 -0.52115,-1.443184 -0.51313,-0.537185 -1.35499,-0.537185 -0.56926,0 -1.02626,0.288637 -0.44899,0.280619 -0.71358,0.793751 -0.26458,0.505114 -0.26458,1.186617 v 7.392306 z"
         style="fill:#000000"
         id="path776" /><path
         d="m 214.66256,68.932257 q -1.90019,0 -3.27122,-0.769698 -1.363,-0.777715 -2.10063,-2.196845 -0.73763,-1.427148 -0.73763,-3.375446 0,-1.900191 0.73763,-3.335356 0.73763,-1.435166 2.07658,-2.236935 1.34697,-0.801768 3.15897,-0.801768 1.21869,0 2.269,0.392867 1.05834,0.384848 1.84407,1.162564 0.79375,0.777715 1.23472,1.956315 0.44098,1.170582 0.44098,2.742048 v 0.938069 h -10.39894 v -2.116669 h 7.18384 q 0,-0.737627 -0.3207,-1.306882 -0.32071,-0.569256 -0.88997,-0.889963 -0.56123,-0.328725 -1.30688,-0.328725 -0.77771,0 -1.37904,0.360796 -0.59331,0.352778 -0.93005,0.954104 -0.33675,0.593309 -0.34476,1.322918 v 2.012439 q 0,0.914016 0.33674,1.579484 0.34476,0.665468 0.97014,1.026264 0.62538,0.360795 1.48327,0.360795 0.56926,0 1.0423,-0.160353 0.47304,-0.160354 0.80979,-0.481061 0.33674,-0.320708 0.51313,-0.785733 l 3.15897,0.208459 q -0.24053,1.138512 -0.98618,1.988386 -0.73763,0.841857 -1.90821,1.314901 -1.16256,0.465025 -2.68592,0.465025 z"
         style="fill:#000000"
         id="path778" /><path
         d="M 116.49882,91.269527 V 74.849309 h 6.5745 q 1.812,0 3.02267,0.537185 1.21067,0.537184 1.82001,1.491289 0.60935,0.946087 0.60935,2.18081 0,0.962122 -0.38485,1.691732 -0.38485,0.721591 -1.05834,1.186617 -0.66547,0.457008 -1.52336,0.649433 v 0.160353 q 0.93807,0.04009 1.75588,0.529168 0.82582,0.489078 1.33895,1.371024 0.51313,0.873927 0.51313,2.084598 0,1.306882 -0.64943,2.333146 -0.64142,1.018246 -1.90019,1.611555 -1.25878,0.593308 -3.10285,0.593308 z m 3.47166,-2.83826 h 2.83024 q 1.4512,0 2.11667,-0.55322 0.66547,-0.561238 0.66547,-1.49129 0,-0.681503 -0.32873,-1.202652 -0.32872,-0.52115 -0.93807,-0.817804 -0.60133,-0.296655 -1.43516,-0.296655 h -2.91042 z m 0,-6.710802 h 2.57367 q 0.71358,0 1.2668,-0.248549 0.56124,-0.256565 0.88194,-0.721591 0.32873,-0.465026 0.32873,-1.114458 0,-0.889963 -0.6334,-1.435166 -0.62538,-0.545203 -1.77993,-0.545203 h -2.63781 z"
         style="fill:#000000"
         id="path780" /><path
         d="M 131.35557,91.269527 V 78.954363 h 3.41554 v 12.315164 z m 1.71579,-13.902665 q -0.76168,0 -1.30689,-0.505114 -0.53718,-0.513132 -0.53718,-1.226706 0,-0.705556 0.53718,-1.210671 0.54521,-0.513131 1.30689,-0.513131 0.76168,0 1.29886,0.513131 0.5452,0.505115 0.5452,1.210671 0,0.713574 -0.5452,1.226706 -0.53718,0.505114 -1.29886,0.505114 z"
         style="fill:#000000"
         id="path782" /><path
         d="M 137.56125,91.269527 V 74.849309 h 3.41553 v 6.173617 h 0.10423 q 0.2245,-0.497096 0.64944,-1.010228 0.43295,-0.52115 1.12247,-0.86591 0.69754,-0.352778 1.73182,-0.352778 1.34697,0 2.48548,0.705556 1.13852,0.697539 1.82002,2.108651 0.6815,1.403095 0.6815,3.519764 0,2.060545 -0.66547,3.479675 -0.65745,1.411113 -1.79596,2.140722 -1.13049,0.721592 -2.53359,0.721592 -0.99419,0 -1.69173,-0.328726 -0.68952,-0.328725 -1.13049,-0.825821 -0.44097,-0.505114 -0.67349,-1.018246 h -0.15233 v 1.97235 z m 3.34337,-6.157582 q 0,1.098423 0.30468,1.916227 0.30467,0.817804 0.88194,1.274812 0.57728,0.44899 1.4031,0.44899 0.83384,0 1.41111,-0.457008 0.57727,-0.465025 0.87393,-1.282829 0.30467,-0.825822 0.30467,-1.900192 0,-1.066352 -0.29666,-1.876138 -0.29665,-0.809786 -0.87392,-1.266794 -0.57728,-0.457008 -1.41913,-0.457008 -0.83384,0 -1.41112,0.440973 -0.56925,0.440972 -0.87392,1.250758 -0.30468,0.809787 -0.30468,1.908209 z"
         style="fill:#000000"
         id="path784" /><path
         d="m 155.25627,74.849309 v 16.420218 h -3.41553 V 74.849309 Z"
         style="fill:#000000"
         id="path786" /><path
         d="m 163.59465,91.510058 q -1.90019,0 -3.27122,-0.769698 -1.363,-0.777715 -2.10063,-2.196845 -0.73763,-1.427148 -0.73763,-3.375446 0,-1.900191 0.73763,-3.335357 0.73763,-1.435165 2.07658,-2.236934 1.34697,-0.801768 3.15897,-0.801768 1.21869,0 2.269,0.392866 1.05834,0.384849 1.84407,1.162565 0.79375,0.777715 1.23472,1.956315 0.44098,1.170582 0.44098,2.742048 v 0.938069 h -10.39894 v -2.116669 h 7.18384 q 0,-0.737627 -0.3207,-1.306882 -0.32071,-0.569256 -0.88997,-0.889963 -0.56123,-0.328726 -1.30688,-0.328726 -0.77771,0 -1.37904,0.360796 -0.59331,0.352778 -0.93005,0.954105 -0.33674,0.593309 -0.34476,1.322918 v 2.012439 q 0,0.914016 0.33674,1.579484 0.34476,0.665468 0.97014,1.026263 0.62538,0.360796 1.48327,0.360796 0.56926,0 1.0423,-0.160354 0.47304,-0.160353 0.80979,-0.481061 0.33674,-0.320707 0.51313,-0.785733 l 3.15897,0.20846 q -0.24053,1.138511 -0.98618,1.988386 -0.73762,0.841857 -1.90821,1.3149 -1.16256,0.465026 -2.68592,0.465026 z"
         style="fill:#000000"
         id="path788" /></g></g></svg>
