<?xml version="1.0" encoding="UTF-8" standalone="no"?>
<!DOCTYPE svg PUBLIC "-//W3C//DTD SVG 20010904//EN"
              "http://www.w3.org/TR/2001/REC-SVG-20010904/DTD/svg10.dtd">

<svg xmlns="http://www.w3.org/2000/svg"
     width="26.6633in" height="14.9981in"
     viewBox="0 0 1920 1080">
  <path id="Auswahl"
        fill="black" stroke="black" stroke-width="1"
        d="M 856.00,444.12
           C 856.00,444.12 917.00,459.37 917.00,459.37
             917.00,459.37 944.00,466.00 944.00,466.00
             944.00,466.00 944.00,511.00 944.00,511.00
             944.00,511.00 907.00,511.00 907.00,511.00
             907.00,511.00 907.00,542.00 907.00,542.00
             907.00,542.00 945.00,542.00 945.00,542.00
             945.00,542.00 944.00,577.00 944.00,577.00
             944.00,577.00 944.00,645.00 944.00,645.00
             944.00,645.00 911.00,636.87 911.00,636.87
             911.00,636.87 853.00,622.37 853.00,622.37
             853.00,622.37 835.00,617.87 835.00,617.87
             835.00,617.87 827.02,614.49 827.02,614.49
             827.02,614.49 826.00,607.00 826.00,607.00
             826.00,607.00 826.00,437.00 826.00,437.00
             826.00,437.00 856.00,444.12 856.00,444.12 Z
           M 1005.00,458.87
           C 1005.00,458.87 1060.00,445.13 1060.00,445.13
             1060.00,445.13 1094.00,437.00 1094.00,437.00
             1094.00,437.00 1094.00,616.00 1094.00,616.00
             1094.00,616.00 1060.00,624.13 1060.00,624.13
             1060.00,624.13 1005.00,637.87 1005.00,637.87
             1005.00,637.87 976.00,645.00 976.00,645.00
             976.00,645.00 976.00,542.00 976.00,542.00
             976.00,542.00 1013.00,542.00 1013.00,542.00
             1013.00,542.00 1013.00,511.00 1013.00,511.00
             1013.00,511.00 976.00,511.00 976.00,511.00
             976.00,511.00 976.00,466.00 976.00,466.00
             976.00,466.00 1005.00,458.87 1005.00,458.87 Z" />
</svg>
