<?xml version="1.0" encoding="UTF-8" standalone="no"?>
<!DOCTYPE svg PUBLIC "-//W3C//DTD SVG 20010904//EN"
              "http://www.w3.org/TR/2001/REC-SVG-20010904/DTD/svg10.dtd">

<svg xmlns="http://www.w3.org/2000/svg"
     width="5.33267in" height="5.33267in"
     viewBox="0 0 512 512">

  <path id="Auswahl"
        fill="black" stroke="black" stroke-width="1"
        d="M 157.00,160.12
           C 157.00,160.12 215.00,174.63 215.00,174.63
             215.00,174.63 233.00,179.13 233.00,179.13
             233.00,179.13 240.98,182.51 240.98,182.51
             240.98,182.51 242.00,190.00 242.00,190.00
             242.00,190.00 242.00,216.00 242.00,216.00
             242.00,216.00 240.98,226.40 240.98,226.40
             240.98,226.40 235.00,228.00 235.00,228.00
             235.00,228.00 204.00,228.00 204.00,228.00
             204.00,228.00 204.00,257.00 204.00,257.00
             204.00,257.00 242.00,257.00 242.00,257.00
             242.00,257.00 242.00,324.00 242.00,324.00
             242.00,324.00 241.00,339.00 241.00,339.00
             241.00,339.00 241.00,362.00 241.00,362.00
             241.00,362.00 208.00,354.37 208.00,354.37
             208.00,354.37 148.00,339.37 148.00,339.37
             148.00,339.37 130.00,334.87 130.00,334.87
             130.00,334.87 122.02,331.49 122.02,331.49
             122.02,331.49 121.00,324.00 121.00,324.00
             121.00,324.00 121.00,152.00 121.00,152.00
             121.00,152.00 157.00,160.12 157.00,160.12 Z
           M 300.00,173.87
           C 300.00,173.87 353.00,160.63 353.00,160.63
             353.00,160.63 391.00,152.00 391.00,152.00
             391.00,152.00 391.00,324.00 391.00,324.00
             391.00,324.00 389.98,331.49 389.98,331.49
             389.98,331.49 382.00,334.87 382.00,334.87
             382.00,334.87 364.00,339.37 364.00,339.37
             364.00,339.37 304.00,354.37 304.00,354.37
             304.00,354.37 271.00,362.00 271.00,362.00
             271.00,362.00 271.00,294.00 271.00,294.00
             271.00,294.00 270.00,258.00 270.00,258.00
             276.72,256.09 299.60,257.00 308.00,257.00
             308.00,257.00 308.00,228.00 308.00,228.00
             308.00,228.00 271.00,228.00 271.00,228.00
             271.00,228.00 271.00,181.00 271.00,181.00
             271.00,181.00 300.00,173.87 300.00,173.87 Z" />
</svg>
